<?xml version="1.0" encoding="utf-8"?>
<!-- Generator: Adobe Illustrator 26.0.1, SVG Export Plug-In . SVG Version: 6.00 Build 0)  -->
<svg version="1.1" id="Layer_2" xmlns="http://www.w3.org/2000/svg" xmlns:xlink="http://www.w3.org/1999/xlink" x="0px" y="0px"
	 viewBox="0 0 101 232.7" style="enable-background:new 0 0 101 232.7;" xml:space="preserve">
<style type="text/css">
	.st0{fill:#FFFFFF;}
	.st1{stroke:#000000;stroke-miterlimit:10;}
</style>
<rect x="0.5" y="-0.5" class="st0" width="100.5" height="232.2"/>
<g>
	<path class="st1" d="M18.5,143.9c0,4.8,3.9,8.7,8.7,8.7h46.6c4.8,0,8.7-3.9,8.7-8.7v-3.4H18.5V143.9z"/>
	<path class="st1" d="M73.8,160.4H27.2c-4.8,0-8.7,3.9-8.7,8.7v53.8c0,4.8,3.9,8.7,8.7,8.7h46.6c4.8,0,8.7-3.9,8.7-8.7v-53.8
		C82.5,164.3,78.6,160.4,73.8,160.4z"/>
	<path class="st1" d="M11.1,142.2H4.6c-1,0-1.8,0.8-1.8,1.8v3.7c0,1,0.8,1.8,1.8,1.8h6.5c1,0,1.8-0.8,1.8-1.8V144
		C12.9,143,12.1,142.2,11.1,142.2z"/>
	<path class="st1" d="M96.3,142.2h-6.5c-1,0-1.8,0.8-1.8,1.8v3.7c0,1,0.8,1.8,1.8,1.8h6.5c1,0,1.8-0.8,1.8-1.8V144
		C98.1,143,97.3,142.2,96.3,142.2z"/>
	<path class="st1" d="M11.1,154.1H4.6c-1,0-1.8,0.8-1.8,1.8v3.7c0,1,0.8,1.8,1.8,1.8h6.5c1,0,1.8-0.8,1.8-1.8v-3.7
		C12.9,154.9,12.1,154.1,11.1,154.1z"/>
	<path class="st1" d="M96.3,154.1h-6.5c-1,0-1.8,0.8-1.8,1.8v3.7c0,1,0.8,1.8,1.8,1.8h6.5c1,0,1.8-0.8,1.8-1.8v-3.7
		C98.1,154.9,97.3,154.1,96.3,154.1z"/>
	<path class="st1" d="M11.1,165.9H4.6c-1,0-1.8,0.8-1.8,1.8v3.7c0,1,0.8,1.8,1.8,1.8h6.5c1,0,1.8-0.8,1.8-1.8v-3.7
		C12.9,166.7,12.1,165.9,11.1,165.9z"/>
	<path class="st1" d="M96.3,165.9h-6.5c-1,0-1.8,0.8-1.8,1.8v3.7c0,1,0.8,1.8,1.8,1.8h6.5c1,0,1.8-0.8,1.8-1.8v-3.7
		C98.1,166.7,97.3,165.9,96.3,165.9z"/>
	<path class="st1" d="M11.1,177.7H4.6c-1,0-1.8,0.8-1.8,1.8v3.7c0,1,0.8,1.8,1.8,1.8h6.5c1,0,1.8-0.8,1.8-1.8v-3.7
		C12.9,178.5,12.1,177.7,11.1,177.7z"/>
	<path class="st1" d="M96.3,177.7h-6.5c-1,0-1.8,0.8-1.8,1.8v3.7c0,1,0.8,1.8,1.8,1.8h6.5c1,0,1.8-0.8,1.8-1.8v-3.7
		C98.1,178.5,97.3,177.7,96.3,177.7z"/>
	<path class="st1" d="M11.1,189.5H4.6c-1,0-1.8,0.8-1.8,1.8v3.7c0,1,0.8,1.8,1.8,1.8h6.5c1,0,1.8-0.8,1.8-1.8v-3.7
		C12.9,190.3,12.1,189.5,11.1,189.5z"/>
	<path class="st1" d="M96.3,189.5h-6.5c-1,0-1.8,0.8-1.8,1.8v3.7c0,1,0.8,1.8,1.8,1.8h6.5c1,0,1.8-0.8,1.8-1.8v-3.7
		C98.1,190.3,97.3,189.5,96.3,189.5z"/>
	<path class="st1" d="M11.1,201.3H4.6c-1,0-1.8,0.8-1.8,1.8v3.7c0,1,0.8,1.8,1.8,1.8h6.5c1,0,1.8-0.8,1.8-1.8v-3.7
		C12.9,202.1,12.1,201.3,11.1,201.3z"/>
	<path class="st1" d="M96.3,201.3h-6.5c-1,0-1.8,0.8-1.8,1.8v3.7c0,1,0.8,1.8,1.8,1.8h6.5c1,0,1.8-0.8,1.8-1.8v-3.7
		C98.1,202.1,97.3,201.3,96.3,201.3z"/>
	<path class="st1" d="M11.1,213.1H4.6c-1,0-1.8,0.8-1.8,1.8v3.7c0,1,0.8,1.8,1.8,1.8h6.5c1,0,1.8-0.8,1.8-1.8v-3.7
		C12.9,213.9,12.1,213.1,11.1,213.1z"/>
	<path class="st1" d="M96.3,213.1h-6.5c-1,0-1.8,0.8-1.8,1.8v3.7c0,1,0.8,1.8,1.8,1.8h6.5c1,0,1.8-0.8,1.8-1.8v-3.7
		C98.1,213.9,97.3,213.1,96.3,213.1z"/>
	<path class="st1" d="M11.1,224.9H4.6c-1,0-1.8,0.8-1.8,1.8v3.7c0,1,0.8,1.8,1.8,1.8h6.5c1,0,1.8-0.8,1.8-1.8v-3.7
		C12.9,225.7,12.1,224.9,11.1,224.9z"/>
	<path class="st1" d="M96.3,224.9h-6.5c-1,0-1.8,0.8-1.8,1.8v3.7c0,1,0.8,1.8,1.8,1.8h6.5c1,0,1.8-0.8,1.8-1.8v-3.7
		C98.1,225.7,97.3,224.9,96.3,224.9z"/>
	<path class="st1" d="M0.5,0.5v139.9h18V90.1c0-4.8,3.9-8.7,8.7-8.7h46.6c4.8,0,8.7,3.9,8.7,8.7v50.4h18V0.5H0.5z M12.9,136
		c0,1-0.8,1.8-1.8,1.8H4.6c-1,0-1.8-0.8-1.8-1.8v-3.7c0-1,0.8-1.8,1.8-1.8h6.5c1,0,1.8,0.8,1.8,1.8V136z M12.9,124.1
		c0,1-0.8,1.8-1.8,1.8H4.6c-1,0-1.8-0.8-1.8-1.8v-3.7c0-1,0.8-1.8,1.8-1.8h6.5c1,0,1.8,0.8,1.8,1.8V124.1z M12.9,112.3
		c0,1-0.8,1.8-1.8,1.8H4.6c-1,0-1.8-0.8-1.8-1.8v-3.7c0-1,0.8-1.8,1.8-1.8h6.5c1,0,1.8,0.8,1.8,1.8V112.3z M12.9,100.5
		c0,1-0.8,1.8-1.8,1.8H4.6c-1,0-1.8-0.8-1.8-1.8v-3.7c0-1,0.8-1.8,1.8-1.8h6.5c1,0,1.8,0.8,1.8,1.8V100.5z M12.9,88.7
		c0,1-0.8,1.8-1.8,1.8H4.6c-1,0-1.8-0.8-1.8-1.8V85c0-1,0.8-1.8,1.8-1.8h6.5c1,0,1.8,0.8,1.8,1.8V88.7z M12.9,76.9
		c0,1-0.8,1.8-1.8,1.8H4.6c-1,0-1.8-0.8-1.8-1.8v-3.7c0-1,0.8-1.8,1.8-1.8h6.5c1,0,1.8,0.8,1.8,1.8V76.9z M12.9,65.1
		c0,1-0.8,1.8-1.8,1.8H4.6c-1,0-1.8-0.8-1.8-1.8v-3.7c0-1,0.8-1.8,1.8-1.8h6.5c1,0,1.8,0.8,1.8,1.8V65.1z M12.9,53.3
		c0,1-0.8,1.8-1.8,1.8H4.6c-1,0-1.8-0.8-1.8-1.8v-3.7c0-1,0.8-1.8,1.8-1.8h6.5c1,0,1.8,0.8,1.8,1.8V53.3z M12.9,41.5
		c0,1-0.8,1.8-1.8,1.8H4.6c-1,0-1.8-0.8-1.8-1.8v-3.7c0-1,0.8-1.8,1.8-1.8h6.5c1,0,1.8,0.8,1.8,1.8V41.5z M12.9,29.6
		c0,1-0.8,1.8-1.8,1.8H4.6c-1,0-1.8-0.8-1.8-1.8v-3.7c0-1,0.8-1.8,1.8-1.8h6.5c1,0,1.8,0.8,1.8,1.8V29.6z M12.9,17.8
		c0,1-0.8,1.8-1.8,1.8H4.6c-1,0-1.8-0.8-1.8-1.8v-3.7c0-1,0.8-1.8,1.8-1.8h6.5c1,0,1.8,0.8,1.8,1.8V17.8z M12.9,6
		c0,1-0.8,1.8-1.8,1.8H4.6C3.7,7.8,2.9,7,2.9,6V2.4h10V6z M82.5,64.8c0,4.8-3.9,8.7-8.7,8.7H27.2c-4.8,0-8.7-3.9-8.7-8.7V11
		c0-4.8,3.9-8.7,8.7-8.7h46.6c4.8,0,8.7,3.9,8.7,8.7V64.8z M98.1,136c0,1-0.8,1.8-1.8,1.8h-6.5c-1,0-1.8-0.8-1.8-1.8v-3.7
		c0-1,0.8-1.8,1.8-1.8h6.5c1,0,1.8,0.8,1.8,1.8V136z M98.1,124.1c0,1-0.8,1.8-1.8,1.8h-6.5c-1,0-1.8-0.8-1.8-1.8v-3.7
		c0-1,0.8-1.8,1.8-1.8h6.5c1,0,1.8,0.8,1.8,1.8V124.1z M98.1,112.3c0,1-0.8,1.8-1.8,1.8h-6.5c-1,0-1.8-0.8-1.8-1.8v-3.7
		c0-1,0.8-1.8,1.8-1.8h6.5c1,0,1.8,0.8,1.8,1.8V112.3z M98.1,100.5c0,1-0.8,1.8-1.8,1.8h-6.5c-1,0-1.8-0.8-1.8-1.8v-3.7
		c0-1,0.8-1.8,1.8-1.8h6.5c1,0,1.8,0.8,1.8,1.8V100.5z M98.1,88.7c0,1-0.8,1.8-1.8,1.8h-6.5c-1,0-1.8-0.8-1.8-1.8V85
		c0-1,0.8-1.8,1.8-1.8h6.5c1,0,1.8,0.8,1.8,1.8V88.7z M98.1,76.9c0,1-0.8,1.8-1.8,1.8h-6.5c-1,0-1.8-0.8-1.8-1.8v-3.7
		c0-1,0.8-1.8,1.8-1.8h6.5c1,0,1.8,0.8,1.8,1.8V76.9z M98.1,65.1c0,1-0.8,1.8-1.8,1.8h-6.5c-1,0-1.8-0.8-1.8-1.8v-3.7
		c0-1,0.8-1.8,1.8-1.8h6.5c1,0,1.8,0.8,1.8,1.8V65.1z M98.1,53.3c0,1-0.8,1.8-1.8,1.8h-6.5c-1,0-1.8-0.8-1.8-1.8v-3.7
		c0-1,0.8-1.8,1.8-1.8h6.5c1,0,1.8,0.8,1.8,1.8V53.3z M98.1,41.5c0,1-0.8,1.8-1.8,1.8h-6.5c-1,0-1.8-0.8-1.8-1.8v-3.7
		c0-1,0.8-1.8,1.8-1.8h6.5c1,0,1.8,0.8,1.8,1.8V41.5z M98.1,29.6c0,1-0.8,1.8-1.8,1.8h-6.5c-1,0-1.8-0.8-1.8-1.8v-3.7
		c0-1,0.8-1.8,1.8-1.8h6.5c1,0,1.8,0.8,1.8,1.8V29.6z M98.1,17.8c0,1-0.8,1.8-1.8,1.8h-6.5c-1,0-1.8-0.8-1.8-1.8v-3.7
		c0-1,0.8-1.8,1.8-1.8h6.5c1,0,1.8,0.8,1.8,1.8V17.8z M98.1,6c0,1-0.8,1.8-1.8,1.8h-6.5c-1,0-1.8-0.8-1.8-1.8V2.4h10V6z"/>
</g>
</svg>
